<svg width="20" height="20" viewBox="0 0 24 24" fill="none" xmlns="http://www.w3.org/2000/svg">
  <path d="M2 2L22 22" stroke="currentColor" stroke-width="1.8" stroke-linecap="round" stroke-linejoin="round"/>
  <path d="M10.58 10.58C10.21 10.95 10 11.46 10 12C10 13.1 10.9 14 12 14C12.54 14 13.05 13.79 13.42 13.42" stroke="currentColor" stroke-width="1.8" stroke-linecap="round" stroke-linejoin="round"/>
  <path d="M9.88 5.09C10.57 4.86 11.28 4.75 12 4.75C16.8 4.75 20.77 8.79 21.75 12C21.36 13.28 20.65 14.49 19.7 15.49" stroke="currentColor" stroke-width="1.8" stroke-linecap="round" stroke-linejoin="round"/>
  <path d="M14.12 18.91C13.43 19.14 12.72 19.25 12 19.25C7.2 19.25 3.23 15.21 2.25 12C2.64 10.72 3.35 9.51 4.3 8.51" stroke="currentColor" stroke-width="1.8" stroke-linecap="round" stroke-linejoin="round"/>
</svg>

